<?xml version="1.0" encoding="iso-8859-1"?>
<!-- Generator: Adobe Illustrator 18.1.1, SVG Export Plug-In . SVG Version: 6.00 Build 0)  -->
<svg version="1.1" id="_x31_" xmlns="http://www.w3.org/2000/svg" xmlns:xlink="http://www.w3.org/1999/xlink" x="0px" y="0px"
	 viewBox="0 0 512 512" style="enable-background:new 0 0 512 512;" xml:space="preserve">
<g>
	<rect x="241.839" y="120.791" style="fill:#BDBCCB;" width="28.323" height="48.92"/>
	<g>
		<path style="fill:#E7E6ED;" d="M283.913,299.3l0.184-0.091l-0.208-0.411l-4.116-85.338l-0.28,0.014l-0.041-0.891h-0.006
			l-0.114-2.344l0.206-0.087l0,0l-0.118-0.273l-0.178-0.426l-0.684,0.288v-0.431h-0.161h-7.459h-0.167h-6.327l-0.122-0.272
			l-0.596,0.272h-0.243h-7.297h-0.169h-0.166h-7.298h-0.245l-0.594-0.27v-0.003l-0.125,0.272h-6.325h-0.167h-7.459h-0.161v0.431
			l-0.682-0.288l0,0l-0.184,0.432l0,0l-0.112,0.265l0.202,0.088l-0.109,2.346h-0.009l-0.045,0.891l-0.308-0.015l-4.118,85.404
			l-0.171,0.345l0.149,0.076L217.828,512h22.732l15.439-31.199L271.442,512h22.731L283.913,299.3z M278.022,228.986l0.537,11.195
			l-5.119-11.195H278.022z M290.808,494.116h-8.59l-1.272-1.789l-0.435-13.544l10.267,14.745L290.808,494.116z M268.673,475.056
			l-0.22-13.587l10.09,14.493l0.012,0.354l-8.987,0L268.673,475.056z M242.463,476.315l-8.988,0l0.012-0.354l10.09-14.492
			l-0.218,13.587L242.463,476.315z M283.843,349.703l-7.461-13.915h6.787L283.843,349.703z M238.629,315.977l0.008-0.013v-0.007
			l7.499-13.908l-0.227,14.064h-7.285L238.629,315.977z M240.858,246.788h5.67l-6.076,12.533L240.858,246.788z M273.401,315.979
			l0.003,0.134h-7.283l-0.231-14.064l7.501,13.908v0.008L273.401,315.979z M268.677,458.513l-0.27-0.388v-0.006l-0.004-0.007
			l-0.224-13.914l9.659,14.315L268.677,458.513z M248.358,280.323l6.721-13.332v13.52l-6.721-0.002V280.323z M248.654,262.256
			l6.425-12.751v13.211h-6.436L248.654,262.256z M263.377,262.256l0.01,0.46h-6.438v-13.212L263.377,262.256z M263.669,280.323
			l0.004,0.188l-6.723-0.002v-13.518L263.669,280.323z M256.949,410.17l8.302,12.747l-8.302-0.001V410.17z M256.949,391.985
			l8.183,13.13h-8.183V391.985z M256.949,374.541l7.846,12.774l-7.846-0.001V374.541z M256.949,356.728l7.63,12.784h-7.63V356.728z
			 M256.949,339.276l7.352,12.441h-7.352V339.276z M256.949,322.161l6.797,11.755h-6.797V322.161z M256.949,303.497l6.764,12.616
			h-6.764V303.497z M255.079,316.113h-6.762l6.762-12.616V316.113z M255.079,333.916h-6.797l6.797-11.755V333.916z M255.079,339.276
			v12.441h-7.348L255.079,339.276z M255.079,369.513l-7.632-0.001l7.632-12.784V369.513z M255.079,387.314l-7.844-0.001
			l7.844-12.773V387.314z M255.079,405.115h-8.185l8.185-13.13V405.115z M255.079,410.17v12.747l-8.302-0.001L255.079,410.17z
			 M265.99,424.791l0.212,13.125l-8.855-13.125H265.99z M257.117,406.989h8.588l0.218,13.528L257.117,406.989z M257.419,389.188
			h7.998l0.214,13.181L257.419,389.188z M257.213,371.386h7.918l0.219,13.244L257.213,371.386z M257.262,353.591h7.587l0.21,13.065
			L257.262,353.591z M257.07,335.789h7.488l0.211,13.042L257.07,335.789z M257.096,318.67l0.384-0.666l-0.029-0.017h6.826
			l0.214,13.474L257.096,318.67z M257.303,300.185h6.685l0.21,12.864L257.303,300.185z M256.949,298.312v-12.851l6.93,12.851
			H256.949z M255.079,298.312h-6.93l6.93-12.851V298.312z M254.726,300.185l-6.892,12.864l0.207-12.864H254.726z M254.575,317.988
			l-0.027,0.017l0.385,0.666l-7.396,12.791l0.218-13.474H254.575z M254.961,335.789l-7.701,13.042l0.208-13.042H254.961z
			 M254.769,353.591l-7.799,13.065l0.209-13.065H254.769z M254.818,371.386l-8.136,13.244l0.216-13.244H254.818z M254.612,389.188
			l-8.212,13.181l0.213-13.181H254.612z M254.912,406.989l-8.808,13.528l0.22-13.528H254.912z M254.679,424.791l-8.853,13.125
			l0.208-13.126L254.679,424.791z M255.079,427.553v13.165l-8.882,0L255.079,427.553z M256.949,427.555l8.882,13.163l-8.882,0
			V427.555z M267.901,426.986l8.943,13.732l-8.722,0L267.901,426.986z M267.613,409.096l8.61,13.821l-8.385-0.001L267.613,409.096z
			 M267.33,391.436l8.402,13.679h-8.181L267.33,391.436z M267.042,373.632l8.165,13.683l-7.94-0.001L267.042,373.632z
			 M267.885,371.386h7.297l0.417,12.926L267.885,371.386z M266.98,369.513l-0.22-13.629l8.048,13.629H266.98z M266.48,338.642
			l7.559,13.074h-7.345L266.48,338.642z M266.194,320.74l7.058,13.176l-6.846,0L266.194,320.74z M257.421,282.384l6.278,0.001
			l0.192,12.003L257.421,282.384z M257.842,264.59h5.576l0.184,11.436L257.842,264.59z M265.243,261.794l-0.184-11.624l6.08,12.546
			h-5.431L265.243,261.794z M271.174,246.788l0.404,12.534l-6.076-12.534H271.174z M263.307,257.954l-5.625-11.166h5.449
			L263.307,257.954z M248.723,257.954l0.178-11.166h5.448L248.723,257.954z M246.971,250.171l-0.185,11.626l-0.465,0.92h-5.433
			L246.971,250.171z M248.611,264.59h5.578l-5.762,11.436L248.611,264.59z M248.329,282.384l6.276,0.001l-6.467,12.003
			L248.329,282.384z M245.624,333.916l-6.848,0l7.06-13.175L245.624,333.916z M245.338,351.717h-7.346l7.559-13.074L245.338,351.717
			z M245.05,369.513l-7.828-0.001l8.047-13.628L245.05,369.513z M244.764,387.314l-7.942-0.001l8.167-13.682L244.764,387.314z
			 M244.48,405.115h-8.181l8.402-13.679L244.48,405.115z M244.193,422.917l-8.389-0.001l8.612-13.82L244.193,422.917z
			 M243.909,440.718l-8.722,0l8.944-13.731L243.909,440.718z M243.621,458.119v0.006l-0.27,0.389l-9.159-0.001l9.658-14.314
			l-0.223,13.914L243.621,458.119z M245.75,442.592h8.69l-8.894,12.767L245.75,442.592z M266.28,442.592l0.206,12.767l-8.894-12.767
			H266.28z M278.045,460.388l0.388,12.135l-8.451-12.135L278.045,460.388z M269.357,442.592h8.112l0.408,12.631L269.357,442.592z
			 M268.708,424.79l8.194,0.001l0.425,13.235L268.708,424.79z M268.51,406.989h7.818l0.428,13.231L268.51,406.989z M268.144,389.188
			h7.609l0.422,13.073L268.144,389.188z M277.124,373.434l8.198,13.881l-7.753-0.001L277.124,373.434z M267.581,353.591h7.03
			l0.404,12.581L267.581,353.591z M266.998,335.789l7.041,0.001l0.415,12.901L266.998,335.789z M266.844,317.988h6.621l0.425,13.147
			L266.844,317.988z M267.015,300.185h5.876l0.374,11.587L267.015,300.185z M266.003,298.312l-0.176-0.33v-0.006l-0.004-0.008
			l-0.217-13.809l7.129,14.152H266.003z M265.537,279.865l-0.22-13.759l6.922,13.733l0.022,0.672l-6.399-0.002L265.537,279.865z
			 M266.651,264.59h5.094l0.349,10.802L266.651,264.59z M273.118,248.969l6.501,13.747h-6.056L273.118,248.969z M271.105,244.713
			l0.008,0.202h-6.138l-0.22-13.632L271.105,244.713z M256.949,244.915v-11.471l5.561,11.471H256.949z M255.079,244.915h-5.56
			l5.56-11.471V244.915z M240.918,244.915l0.006-0.202l6.348-13.43l-0.218,13.632H240.918z M238.469,262.716h-6.056l6.5-13.748
			L238.469,262.716z M245.377,264.59l-5.441,10.802l0.349-10.802H245.377z M239.791,279.839l6.922-13.733l-0.218,13.759
			l-0.325,0.646l-6.401-0.002L239.791,279.839z M246.206,297.969l-0.004,0.008v0.006l-0.18,0.329h-6.723l7.13-14.152
			L246.206,297.969z M245.015,300.185l-6.248,11.587l0.372-11.587H245.015z M238.566,317.988h6.619l-7.044,13.146L238.566,317.988z
			 M245.036,335.789l-7.456,12.901l0.412-12.902L245.036,335.789z M244.448,353.591l-7.43,12.579l0.405-12.579H244.448z
			 M244.148,371.386l-7.718,12.928l0.416-12.928H244.148z M243.882,389.188l-8.027,13.073l0.424-13.073H243.882z M243.52,406.989
			l-8.244,13.23l0.427-13.23H243.52z M243.323,424.791l-8.618,13.235l0.425-13.236L243.323,424.791z M242.676,442.592l-8.524,12.632
			l0.41-12.632H242.676z M233.986,460.387l8.061,0l-8.447,12.135L233.986,460.387z M255.079,444.952v13.562l-9.449-0.001
			L255.079,444.952z M256.949,458.513v-13.562l9.449,13.562L256.949,458.513z M281.077,476.315l-0.682-0.972l-0.437-13.684
			l9.888,14.657L281.077,476.315z M281.362,460.387l7.818,0l0.6,12.482L281.362,460.387z M280.097,458.513l-0.25-0.37l-0.434-13.482
			l9.018,13.853L280.097,458.513z M278.851,427.131l8.463,13.587l-8.026,0L278.851,427.131z M279.6,424.79l7.863,0.001l0.661,13.676
			L279.6,424.79z M278.716,422.916l-0.441-13.659l8.387,13.66L278.716,422.916z M277.702,391.49l8.132,13.625h-7.689L277.702,391.49
			z M278.51,389.188h7.236l0.637,13.19L278.51,389.188z M278.092,371.386h6.797l0.602,12.532L278.092,371.386z M276.993,369.513
			l-0.431-13.428l7.765,13.428H276.993z M276.019,339.073l6.777,12.644h-6.37L276.019,339.073z M275.852,333.916l-0.455-14.247
			l7.677,14.247H275.852z M275.605,316.113l-0.339-0.625v-0.006l-0.008-0.012l-0.417-12.977l6.862,13.62H275.605z M266.805,282.384
			l5.517,0.001l0.374,11.686L266.805,282.384z M274.097,279.366l-0.364-11.29l6.028,12.436l-5.087-0.002L274.097,279.366z
			 M274.127,264.59h5.609l0.623,12.856L274.127,264.59z M274.159,246.788h4.718l0.535,11.111L274.159,246.788z M273.273,244.915
			l-0.306-0.651l-0.404-12.692l6.103,13.343H273.273z M270.602,228.986l0.353,11.026l-5.213-11.026H270.602z M262.844,228.986
			l0.206,12.748l-5.994-12.372l0.185-0.375H262.844z M254.793,228.986l0.183,0.375l-5.996,12.372l0.204-12.748H254.793z
			 M241.075,240.012l0.351-11.026h4.861L241.075,240.012z M239.062,244.264l-0.306,0.651h-5.392l6.106-13.342L239.062,244.264z
			 M237.869,246.788l-5.29,11.184l0.541-11.184H237.869z M237.904,264.59l-6.264,12.926l0.623-12.926H237.904z M238.296,268.075
			l-0.361,11.29l-0.578,1.146l-5.086-0.002L238.296,268.075z M239.709,282.384l5.515,0.001l-5.888,11.686L239.709,282.384z
			 M236.771,315.47l-0.008,0.012v0.007l-0.337,0.624h-6.099l6.864-13.62L236.771,315.47z M236.175,333.916l-7.22,0l7.684-14.247
			L236.175,333.916z M235.644,335.789l-7.489,13.977l0.674-13.978L235.644,335.789z M236.011,339.073l-0.404,12.644h-6.372
			L236.011,339.073z M235.035,369.513l-7.33-0.001l7.763-13.428L235.035,369.513z M234.461,387.314l-7.751-0.001l8.197-13.88
			L234.461,387.314z M233.52,389.188l-7.906,13.247l0.639-13.247H233.52z M234.33,391.49l-0.444,13.625h-7.689L234.33,391.49z
			 M233.314,422.917l-7.949-0.001l8.39-13.659L233.314,422.917z M232.428,424.791l-8.555,13.73l0.662-13.73H232.428z
			 M233.177,427.13l-0.435,13.588l-8.03,0L233.177,427.13z M232.183,458.143l-0.25,0.371l-8.333-0.001l9.02-13.853L232.183,458.143z
			 M230.668,460.388l-8.455,12.531l0.604-12.532L230.668,460.388z M232.069,461.659l-0.437,13.684l-0.678,0.972l-8.769,0
			L232.069,461.659z M233.41,478.189h7.722l-8.085,11.376L233.41,478.189z M245.469,460.387l8.314,0l-8.508,11.969L245.469,460.387z
			 M266.561,460.388l0.193,11.969l-8.508-11.97L266.561,460.388z M278.616,478.189l0.367,11.376l-8.085-11.376H278.616z
			 M282.381,478.189h7.658l0.571,11.816L282.381,478.189z M280.301,442.592h8.02l0.643,13.305L280.301,442.592z M279.08,406.989
			h7.526l0.639,13.297L279.08,406.989z M277.285,353.591h6.746l0.613,12.726L277.285,353.591z M276.615,317.988h5.697l0.559,11.604
			L276.615,317.988z M275.778,300.185h5.672l0.604,12.463L275.778,300.185z M281.365,298.312h-6.534l-0.133-0.27l-0.457-14.224
			l7.103,14.095L281.365,298.312z M275.617,282.384l4.976,0.001l0.531,10.922L275.617,282.384z M264.857,227.113l-0.176-0.37
			l-0.209-12.871l0.015,0.038l6.039,13.203H264.857z M256.949,227.113V214.78l5.833,12.333H256.949z M255.079,227.113h-5.833
			l5.833-12.333V227.113z M247.171,227.113h-5.664l6.035-13.203l0.014-0.037l-0.208,12.868L247.171,227.113z M239.625,226.72
			l-0.18,0.393h-4.665l5.208-11.698L239.625,226.72z M238.59,228.986l-5.155,11.269l0.543-11.269H238.59z M231.403,282.384
			l5.008,0.001l-5.537,10.99L231.403,282.384z M237.788,283.818l-0.452,14.224l-0.136,0.27h-6.564l0.016-0.332L237.788,283.818z
			 M236.254,300.185l-6.313,12.531l0.605-12.531H236.254z M235.413,317.988l-6.291,11.666l0.564-11.666H235.413z M227.97,353.591
			h6.771l-7.389,12.784L227.97,353.591z M233.938,371.386l-7.435,12.59l0.606-12.59H233.938z M232.951,406.989l-8.2,13.351
			l0.641-13.351H232.951z M231.732,442.592l-8.698,13.355l0.643-13.355H231.732z M229.647,478.189l-8.259,11.863l0.573-11.863
			H229.647z M231.517,478.783l-0.435,13.544l-1.27,1.789h-8.62l0.028-0.539L231.517,478.783z M228.481,495.991l-7.914,11.137
			l0.535-11.137H228.481z M232.938,492.952l10.366-14.586l-0.253,15.75h-10.149L232.938,492.952z M245.224,475.668l9.855-13.868
			v14.515l-9.868,0L245.224,475.668z M256.949,461.801l9.858,13.868l0.01,0.647h-9.868V461.801z M268.722,478.366l10.372,14.586
			l0.033,1.164h-10.147L268.722,478.366z M290.895,495.991l0.538,11.091l-7.883-11.091H290.895z M272.583,227.113l-0.178-0.393
			l-0.363-11.305l5.208,11.698H272.583z M270.029,211.186l0.078,2.366l0.282,8.758l-4.194-9.179l-0.894-1.945H270.029z
			 M262.556,211.186l0.037,2.349l0.147,9.103l-5.415-11.452H262.556z M249.289,222.638l0.147-9.101l0.039-2.351h5.229
			L249.289,222.638z M245.836,213.131l-4.194,9.179l0.282-8.758l0.078-2.366h4.725L245.836,213.131z M238.949,213.138l-4.718,10.598
			l0.491-10.154l-0.306-0.014l0.111-2.382h5.294L238.949,213.138z M230.778,495.991h0.19l-0.437,13.511h-9.353L230.778,495.991z
			 M232.845,495.991h9.18l-9.563,11.889L232.845,495.991z M245.693,495.991l-0.824,1.667l0.026-1.667H245.693z M244.924,494.116
			l0.257-15.927h9.325l-7.885,15.927H244.924z M266.848,478.189l0.257,15.927h-1.727l-7.883-15.927H266.848z M267.136,495.991
			l0.027,1.731l-0.855-1.731H267.136z M279.186,495.991l0.384,11.889l-9.566-11.889H279.186z M281.062,495.991h0.188l9.602,13.511
			h-9.355L281.062,495.991z M277.763,223.66l-4.684-10.52l-0.874-1.955h5.296l0.112,2.379l-0.336,0.018l0,0L277.763,223.66z
			 M239.005,509.502h-5.443l9.431-11.723l-0.059,3.79L239.005,509.502z M269.098,501.634l-0.059-3.856l9.431,11.723h-5.476
			L269.098,501.634z"/>
		<path style="fill:#E7E6ED;" d="M271.411,169.711v-50.17h-30.824v51.419h30.824V169.711z M268.722,168.462l-4.22-10.675h4.408
			v10.675H268.722z M243.085,168.462v-10.675h4.444l-4.22,10.675H243.085z M268.91,151.665l-4.4-11.68h4.142h0.258V151.665z
			 M250.616,139.985h3.953l-4.12,10.416L250.616,139.985z M261.413,139.985l0.167,10.414l-4.116-10.414H261.413z M261.364,136.959
			l0.021,1.152h-4.435v-12.857L261.364,136.959z M255.079,138.111h-4.433l0.02-1.151l4.412-11.706V138.111z M243.085,139.985h0.293
			h4.143l-4.436,11.76V139.985z M243.743,155.318l4.963-13.167l-0.21,13.188v0.008v0.004l-0.225,0.563h-4.752L243.743,155.318z
			 M250.365,155.72l0.002-0.009v-0.008l4.712-11.912v12.123h-4.719L250.365,155.72z M256.949,155.914v-12.123l4.712,11.913v0.007
			l0.002,0.007l0.006,0.195H256.949z M263.759,155.914l-0.225-0.562v-0.006v-0.008l-0.212-13.188l4.966,13.169l0.223,0.595H263.759z
			 M268.652,138.111h-4.85l-0.57-1.509l-0.222-14.024l5.278,14.002l0.576,1.531H268.652z M261.276,131.412l-3.532-9.372h3.383
			L261.276,131.412z M250.753,131.412l0.151-9.372h3.381L250.753,131.412z M248.799,136.602l-0.572,1.509h-4.849h-0.212l0.578-1.532
			l5.28-14.001L248.799,136.602z M248.411,160.653l-0.123,7.809h-2.967L248.411,160.653z M250.163,168.462l0.165-10.675h4.486
			l-4.549,10.675H250.163z M255.079,161.949v6.513h-2.777L255.079,161.949z M256.949,161.949l2.781,6.513h-2.781V161.949z
			 M257.215,157.787h4.488l0.165,10.675h-0.102L257.215,157.787z M263.74,168.462l-0.121-7.809l3.087,7.809H263.74z M268.91,132.926
			l-4.102-10.886h4.102V132.926z M247.224,122.04l-4.139,10.968V122.04H247.224z"/>
	</g>
	<g>
		<rect x="252.137" style="fill:#D2D2D2;" width="7.724" height="119.932"/>
		<rect x="249.06" y="57.279" style="fill:#BFBEBE;" width="13.882" height="12.875"/>
		<rect x="249.06" y="35.825" style="fill:#BFBEBE;" width="13.882" height="12.873"/>
		<rect x="249.06" y="14.368" style="fill:#BFBEBE;" width="13.882" height="12.874"/>
	</g>
	<g>
		<polygon style="fill:#D2D2D2;" points="289.789,185.876 255.871,190.603 222.213,185.876 222.213,169.494 289.789,169.494 		"/>
		<polygon style="fill:#D2D2D2;" points="296.188,278.693 255.079,281.191 215.812,278.693 215.812,266.405 296.188,266.405 		"/>
		<polygon style="fill:#BFBEBE;" points="284.156,212.496 227.844,212.496 222.213,185.876 289.789,185.876 		"/>
		<polygon style="fill:#BFBEBE;" points="289.489,318.314 222.511,318.314 215.812,278.693 296.188,278.693 		"/>
	</g>
</g>
</svg>
